<svg width="234" height="184" viewBox="0 0 234 184" fill="none" xmlns="http://www.w3.org/2000/svg">
<circle cx="4.17857" cy="4.17857" r="4.17857" fill="#FFB636"/>
<circle cx="29.25" cy="4.17857" r="4.17857" fill="#FFB636"/>
<circle cx="54.3215" cy="4.17857" r="4.17857" fill="#FFB636"/>
<circle cx="79.3929" cy="4.17857" r="4.17857" fill="#FFB636"/>
<circle cx="104.464" cy="4.17857" r="4.17857" fill="#FFB636"/>
<circle cx="129.536" cy="4.17857" r="4.17857" fill="#FFB636"/>
<circle cx="154.607" cy="4.17857" r="4.17857" fill="#FFB636"/>
<circle cx="179.679" cy="4.17857" r="4.17857" fill="#FFB636"/>
<circle cx="204.75" cy="4.17857" r="4.17857" fill="#FFB636"/>
<circle cx="229.821" cy="4.17857" r="4.17857" fill="#FFB636"/>
<circle cx="4.17857" cy="29.25" r="4.17857" fill="#FFB636"/>
<circle cx="29.25" cy="29.25" r="4.17857" fill="#FFB636"/>
<circle cx="54.3215" cy="29.25" r="4.17857" fill="#FFB636"/>
<circle cx="79.3929" cy="29.25" r="4.17857" fill="#FFB636"/>
<circle cx="104.464" cy="29.25" r="4.17857" fill="#FFB636"/>
<circle cx="129.536" cy="29.25" r="4.17857" fill="#FFB636"/>
<circle cx="154.607" cy="29.25" r="4.17857" fill="#FFB636"/>
<circle cx="179.679" cy="29.25" r="4.17857" fill="#FFB636"/>
<circle cx="204.75" cy="29.25" r="4.17857" fill="#FFB636"/>
<circle cx="229.821" cy="29.25" r="4.17857" fill="#FFB636"/>
<circle cx="4.17857" cy="54.3215" r="4.17857" fill="#FFB636"/>
<circle cx="29.25" cy="54.3215" r="4.17857" fill="#FFB636"/>
<circle cx="54.3215" cy="54.3215" r="4.17857" fill="#FFB636"/>
<circle cx="79.3929" cy="54.3215" r="4.17857" fill="#FFB636"/>
<circle cx="104.464" cy="54.3215" r="4.17857" fill="#FFB636"/>
<circle cx="129.536" cy="54.3215" r="4.17857" fill="#FFB636"/>
<circle cx="154.607" cy="54.3215" r="4.17857" fill="#FFB636"/>
<circle cx="179.679" cy="54.3215" r="4.17857" fill="#FFB636"/>
<circle cx="204.75" cy="54.3215" r="4.17857" fill="#FFB636"/>
<circle cx="229.821" cy="54.3215" r="4.17857" fill="#FFB636"/>
<circle cx="4.17857" cy="79.3929" r="4.17857" fill="#FFB636"/>
<circle cx="29.25" cy="79.3929" r="4.17857" fill="#FFB636"/>
<circle cx="54.3215" cy="79.3929" r="4.17857" fill="#FFB636"/>
<circle cx="79.3929" cy="79.3929" r="4.17857" fill="#FFB636"/>
<circle cx="104.464" cy="79.3929" r="4.17857" fill="#FFB636"/>
<circle cx="129.536" cy="79.3929" r="4.17857" fill="#FFB636"/>
<circle cx="154.607" cy="79.3929" r="4.17857" fill="#FFB636"/>
<circle cx="179.679" cy="79.3929" r="4.17857" fill="#FFB636"/>
<circle cx="204.75" cy="79.3929" r="4.17857" fill="#FFB636"/>
<circle cx="229.821" cy="79.3929" r="4.17857" fill="#FFB636"/>
<circle cx="4.17857" cy="104.464" r="4.17857" fill="#FFB636"/>
<circle cx="29.25" cy="104.464" r="4.17857" fill="#FFB636"/>
<circle cx="54.3215" cy="104.464" r="4.17857" fill="#FFB636"/>
<circle cx="79.3929" cy="104.464" r="4.17857" fill="#FFB636"/>
<circle cx="104.464" cy="104.464" r="4.17857" fill="#FFB636"/>
<circle cx="129.536" cy="104.464" r="4.17857" fill="#FFB636"/>
<circle cx="154.607" cy="104.464" r="4.17857" fill="#FFB636"/>
<circle cx="179.679" cy="104.464" r="4.17857" fill="#FFB636"/>
<circle cx="204.75" cy="104.464" r="4.17857" fill="#FFB636"/>
<circle cx="229.821" cy="104.464" r="4.17857" fill="#FFB636"/>
<circle cx="4.17857" cy="129.536" r="4.17857" fill="#FFB636"/>
<circle cx="29.25" cy="129.536" r="4.17857" fill="#FFB636"/>
<circle cx="54.3215" cy="129.536" r="4.17857" fill="#FFB636"/>
<circle cx="79.3929" cy="129.536" r="4.17857" fill="#FFB636"/>
<circle cx="104.464" cy="129.536" r="4.17857" fill="#FFB636"/>
<circle cx="129.536" cy="129.536" r="4.17857" fill="#FFB636"/>
<circle cx="154.607" cy="129.536" r="4.17857" fill="#FFB636"/>
<circle cx="179.679" cy="129.536" r="4.17857" fill="#FFB636"/>
<circle cx="204.75" cy="129.536" r="4.17857" fill="#FFB636"/>
<circle cx="229.821" cy="129.536" r="4.17857" fill="#FFB636"/>
<circle cx="4.17857" cy="154.607" r="4.17857" fill="#FFB636"/>
<circle cx="29.25" cy="154.607" r="4.17857" fill="#FFB636"/>
<circle cx="54.3215" cy="154.607" r="4.17857" fill="#FFB636"/>
<circle cx="79.3929" cy="154.607" r="4.17857" fill="#FFB636"/>
<circle cx="104.464" cy="154.607" r="4.17857" fill="#FFB636"/>
<circle cx="129.536" cy="154.607" r="4.17857" fill="#FFB636"/>
<circle cx="154.607" cy="154.607" r="4.17857" fill="#FFB636"/>
<circle cx="179.679" cy="154.607" r="4.17857" fill="#FFB636"/>
<circle cx="204.75" cy="154.607" r="4.17857" fill="#FFB636"/>
<circle cx="229.821" cy="154.607" r="4.17857" fill="#FFB636"/>
<circle cx="4.17857" cy="154.607" r="4.17857" fill="#FFB636"/>
<circle cx="29.25" cy="154.607" r="4.17857" fill="#FFB636"/>
<circle cx="54.3215" cy="154.607" r="4.17857" fill="#FFB636"/>
<circle cx="79.3929" cy="154.607" r="4.17857" fill="#FFB636"/>
<circle cx="104.464" cy="154.607" r="4.17857" fill="#FFB636"/>
<circle cx="129.536" cy="154.607" r="4.17857" fill="#FFB636"/>
<circle cx="154.607" cy="154.607" r="4.17857" fill="#FFB636"/>
<circle cx="179.679" cy="154.607" r="4.17857" fill="#FFB636"/>
<circle cx="204.75" cy="154.607" r="4.17857" fill="#FFB636"/>
<circle cx="229.821" cy="154.607" r="4.17857" fill="#FFB636"/>
<circle cx="4.17857" cy="179.679" r="4.17857" fill="#FFB636"/>
<circle cx="29.25" cy="179.679" r="4.17857" fill="#FFB636"/>
<circle cx="54.3215" cy="179.679" r="4.17857" fill="#FFB636"/>
<circle cx="79.3929" cy="179.679" r="4.17857" fill="#FFB636"/>
<circle cx="104.464" cy="179.679" r="4.17857" fill="#FFB636"/>
<circle cx="129.536" cy="179.679" r="4.17857" fill="#FFB636"/>
<circle cx="154.607" cy="179.679" r="4.17857" fill="#FFB636"/>
<circle cx="179.679" cy="179.679" r="4.17857" fill="#FFB636"/>
<circle cx="204.75" cy="179.679" r="4.17857" fill="#FFB636"/>
<circle cx="229.821" cy="179.679" r="4.17857" fill="#FFB636"/>
</svg>
